<svg width="35" height="28" viewBox="0 0 35 28" fill="none" xmlns="http://www.w3.org/2000/svg">
<path fill-rule="evenodd" clip-rule="evenodd" d="M32.8312 27.4235C32.8312 27.4235 35.0301 27.4235 35.0301 25.2047C35.0301 22.9859 32.8312 16.3296 24.0353 16.3296C15.2394 16.3296 13.0405 22.9859 13.0405 25.2047C13.0405 27.4235 15.2394 27.4235 15.2394 27.4235H32.8312ZM15.2878 25.2047H32.7828C32.7931 25.2035 32.8034 25.202 32.8136 25.2003L32.8312 25.1958C32.8268 24.6101 32.4639 22.9105 31.16 21.3795C29.9461 19.944 27.8131 18.5484 24.0353 18.5484C20.2597 18.5484 18.1267 19.9462 16.9107 21.3795C15.6067 22.9105 15.2416 24.6123 15.2394 25.1958C15.2555 25.199 15.2717 25.2019 15.2878 25.2047ZM24.0353 11.892C25.2017 11.892 26.3203 11.4245 27.1451 10.5923C27.9699 9.76011 28.4332 8.6314 28.4332 7.45449C28.4332 6.27758 27.9699 5.14887 27.1451 4.31666C26.3203 3.48446 25.2017 3.01693 24.0353 3.01693C22.8689 3.01693 21.7503 3.48446 20.9255 4.31666C20.1007 5.14887 19.6374 6.27758 19.6374 7.45449C19.6374 8.6314 20.1007 9.76011 20.9255 10.5923C21.7503 11.4245 22.8689 11.892 24.0353 11.892ZM30.6322 7.45449C30.6322 8.32861 30.4616 9.19417 30.13 10.0018C29.7985 10.8093 29.3126 11.5431 28.7 12.1612C28.0874 12.7793 27.3602 13.2696 26.5598 13.6041C25.7595 13.9386 24.9016 14.1108 24.0353 14.1108C23.169 14.1108 22.3112 13.9386 21.5108 13.6041C20.7104 13.2696 19.9832 12.7793 19.3706 12.1612C18.758 11.5431 18.2721 10.8093 17.9406 10.0018C17.609 9.19417 17.4384 8.32861 17.4384 7.45449C17.4384 5.68912 18.1334 3.99606 19.3706 2.74775C20.6078 1.49945 22.2857 0.798157 24.0353 0.798157C25.7849 0.798157 27.4629 1.49945 28.7 2.74775C29.9372 3.99606 30.6322 5.68912 30.6322 7.45449ZM15.0987 16.9509C14.2191 16.6714 13.3123 16.4876 12.394 16.4028C11.878 16.3533 11.3599 16.3289 10.8415 16.3296C2.04565 16.3296 -0.15332 22.9859 -0.15332 25.2047C-0.15332 26.6846 0.578935 27.4235 2.04565 27.4235H11.3165C10.9905 26.7308 10.8279 25.9714 10.8415 25.2047C10.8415 22.9637 11.6705 20.674 13.2384 18.7614C13.7727 18.1091 14.395 17.4989 15.0987 16.9509ZM10.6656 18.5484C6.99772 18.5927 4.9153 19.9684 3.71686 21.3795C2.40408 22.9194 2.04565 24.6256 2.04565 25.2047H8.64254C8.64254 22.8861 9.35281 20.5763 10.6656 18.5484ZM3.14513 8.56388C3.14513 6.79851 3.84016 5.10544 5.07732 3.85714C6.31447 2.60884 7.99242 1.90755 9.74203 1.90755C11.4916 1.90755 13.1696 2.60884 14.4067 3.85714C15.6439 5.10544 16.3389 6.79851 16.3389 8.56388C16.3389 10.3292 15.6439 12.0223 14.4067 13.2706C13.1696 14.5189 11.4916 15.2202 9.74203 15.2202C7.99242 15.2202 6.31447 14.5189 5.07732 13.2706C3.84016 12.0223 3.14513 10.3292 3.14513 8.56388ZM9.74203 4.12632C8.57562 4.12632 7.45699 4.59385 6.63222 5.42605C5.80745 6.25825 5.3441 7.38696 5.3441 8.56388C5.3441 9.74079 5.80745 10.8695 6.63222 11.7017C7.45699 12.5339 8.57562 13.0014 9.74203 13.0014C10.9084 13.0014 12.0271 12.5339 12.8518 11.7017C13.6766 10.8695 14.14 9.74079 14.14 8.56388C14.14 7.38696 13.6766 6.25825 12.8518 5.42605C12.0271 4.59385 10.9084 4.12632 9.74203 4.12632Z" fill="#23A6F0"/>
</svg>
